inDegrees=no
num_controls=7
num_derivatives=13
num_iterations=199
num_multipliers=7
num_parameters=0
num_slacks=7
num_states=26
objective=5.983847
objective_accelerations=0.474231
objective_balance=0.034319
objective_effort=0.464437
objective_height=4.937151
objective_ligament=0.073709
solver_duration=1730.232482
status=Solve_Succeeded
success=true
DataType=double
version=3
OpenSimVersion=4.4-2022-07-23-0e9fedc
endheader
time	/jointset/ground_pelvis/pelvis_tilt/value	/jointset/ground_pelvis/pelvis_tx/value	/jointset/ground_pelvis/pelvis_ty/value	/jointset/hip_r/hip_flexion_r/value	/jointset/hip_r/hip_adduction_r/value	/jointset/hip_r/hip_rotation_r/value	/jointset/back/lumbar_extension/value	/jointset/patellofemoral_r/patellar_flexion_r/value	/jointset/knee_r/knee_flexion_r/value	/jointset/knee_r/knee_adduction_r/value	/jointset/knee_r/knee_rotation_r/value	/jointset/ankle_r/ankle_angle_r/value	/jointset/subtalar_r/subtalar_angle_r/value	/jointset/ground_pelvis/pelvis_tilt/speed	/jointset/ground_pelvis/pelvis_tx/speed	/jointset/ground_pelvis/pelvis_ty/speed	/jointset/hip_r/hip_flexion_r/speed	/jointset/hip_r/hip_adduction_r/speed	/jointset/hip_r/hip_rotation_r/speed	/jointset/back/lumbar_extension/speed	/jointset/patellofemoral_r/patellar_flexion_r/speed	/jointset/knee_r/knee_flexion_r/speed	/jointset/knee_r/knee_adduction_r/speed	/jointset/knee_r/knee_rotation_r/speed	/jointset/ankle_r/ankle_angle_r/speed	/jointset/subtalar_r/subtalar_angle_r/speed	/forceset/tau_hip_flexion_r	/forceset/tau_hip_adduction_r	/forceset/tau_hip_rotation_r	/forceset/tau_knee_flexion_r	/forceset/tau_ankle_angle_r	/forceset/tau_subtalar_angle_r	/forceset/tau_lumbar_extension	lambda_cid13_p0	lambda_cid14_p0	lambda_cid14_p1	lambda_cid14_p2	lambda_cid14_p3	lambda_cid14_p4	lambda_cid14_p5	/jointset/ground_pelvis/pelvis_tilt/accel	/jointset/ground_pelvis/pelvis_tx/accel	/jointset/ground_pelvis/pelvis_ty/accel	/jointset/hip_r/hip_flexion_r/accel	/jointset/hip_r/hip_adduction_r/accel	/jointset/hip_r/hip_rotation_r/accel	/jointset/back/lumbar_extension/accel	/jointset/patellofemoral_r/patellar_flexion_r/accel	/jointset/knee_r/knee_flexion_r/accel	/jointset/knee_r/knee_adduction_r/accel	/jointset/knee_r/knee_rotation_r/accel	/jointset/ankle_r/ankle_angle_r/accel	/jointset/subtalar_r/subtalar_angle_r/accel	gamma_cid13_p0	gamma_cid14_p0	gamma_cid14_p1	gamma_cid14_p2	gamma_cid14_p3	gamma_cid14_p4	gamma_cid14_p5
1.5	-0.1299492148098622	0.05222224518864885	0.8600754824077863	0.7257373759658248	-0.2413606702737088	-0.1162445357840287	-0.2801069375669146	0.6876402658644843	0.6876402658647504	0.07325123694763157	0.1745316626276544	0.2579304922208642	0.03971049074651233	0.284408111510692	0.1389872554730019	0.3709518238468531	-1.615388761573666	0.04256863146640894	-0.4012201314765537	0.6980161176546299	-1.867539119239042	-1.867539119239054	0.1624505598785325	1.599788168179158e-05	-0.6210839512143018	-0.1056773026061159	-0.07780740500252475	-0.02255713040116092	0.01093206383361055	-0.3308118793733378	0.0624630915701776	-0.01255384609377325	0.129987496963139	-32.0491557025268	-21.46890309953609	-4.939845400265207	-3.631382188975511	2.532511200996237	-657.8149339848792	59.05702708552512	0.1345028780112313	0.3118044964139264	-0.5097612249147894	-0.7640259029924444	0.1054539546712613	-0.2822590138636184	1.234217412285145	-1.019123856387892	-1.019123856387899	0.5271208825843705	-0.03028403969963882	-0.4720755131319512	0.0597834275250504	1.32546373757806e-07	5.431698592020138e-08	-1.506171278835174e-06	5.994307128789832e-07	1.266072582463201e-07	1.383714360352628e-07	-1.054837678886667e-06
1.51	-0.1270988288436933	0.0536275102287394	0.8637587181691619	0.7095473703359342	-0.2409303834503465	-0.1202715241885449	-0.2730660473172102	0.6689164958097303	0.6689164958097498	0.07490283892359491	0.1745318561971318	0.2516966971810175	0.03865596318338909	0.2856294776233168	0.1420430371455156	0.3656192778676646	-1.622388611079816	0.04348371559941576	-0.4041486345571363	0.7100555467709974	-1.876947502000637	-1.876947502000656	0.1678684841990286	1.943676512251583e-05	-0.6255853417276153	-0.1052142964434603	-0.07198994702671967	-0.0243613286722827	0.01037274369118986	-0.3274093902680728	0.06617945042013838	-0.01374399663857042	0.1246163507094348	-33.0845673516209	-20.15138264263382	-5.133439177798548	-3.706289763379667	2.098431666003747	-654.3895031618972	58.90712851515894	0.110017763869761	0.2990873757727572	-0.5563859393728264	-0.6343962938569517	0.08373067450177199	-0.2936248287691363	1.172847833958122	-0.8616154150820192	-0.86161541508311	0.5487189447732744	0.01526003211621639	-0.4256810353693151	0.04146126930723897	1.387388970983332e-07	4.7820037739258e-08	-1.586241930363109e-06	5.984647139896711e-07	1.410003315642955e-07	1.227124694577902e-07	-1.091948511465877e-06
1.52	-0.1242374163591987	0.05506265756017562	0.8673863515397552	0.6932940798470981	-0.2404911067792675	-0.1243268933985964	-0.2659079543418131	0.6501066579415502	0.6501066579413257	0.07660853829035592	0.174532004591404	0.2454205861930502	0.03760644609362709	0.286613415175206	0.1449637137421351	0.3598313456903834	-1.628045733363194	0.0443666010078753	-0.4068962925822618	0.7214566627931862	-1.884752681923701	-1.884752681923728	0.173270038039163	6.962838575984048e-06	-0.6295471408384596	-0.1046752079339478	-0.06617248905092092	-0.02616552694341101	0.009813423548826193	-0.3240069011628122	0.06989580927009656	-0.01493414718337826	0.1192452044557266	-34.09033498206489	-18.84175185912098	-5.324163222181893	-3.786510931198663	1.663758231085616	-651.0972762499789	58.81666699324377	0.08701716586406275	0.284783481235105	-0.6008384645333182	-0.4954804584380047	0.09901420976180805	-0.2460900027721706	1.106554793449358	-0.6984832886818324	-0.6984832886818283	0.5238467865120348	-0.03346660169709783	-0.3641572326381347	0.07499989689645326	1.455343507970227e-07	4.471774151942687e-08	-1.664483972606999e-06	6.085412078132063e-07	1.517148916326226e-07	1.164892026005659e-07	-1.131700357432297e-06
1.53	-0.1213674002398854	0.05652629643394918	0.8709538802416179	0.6769910366350858	-0.240043212359967	-0.1284089355734256	-0.2586391323111292	0.6312269016902619	0.6312269016901072	0.07836819295636302	0.1745320797984508	0.2391075891231927	0.03656265351013503	0.287347337821488	0.147737030029463	0.3536039645321013	-1.632327915244411	0.04520559580559847	-0.4094811568661272	0.7321888939727618	-1.890917972494455	-1.890917972494461	0.1786564684684698	5.935686745627247e-06	-0.6329573935238733	-0.1040705554125063	-0.0602351700597522	-0.02814383791183587	0.009213644466047766	-0.3207677253771122	0.07381442740637624	-0.01620936146834183	0.1137886343409623	-35.06136034243846	-17.47917265465446	-5.544513022232396	-3.859777365137887	1.221040190813121	-647.9236975279964	58.71690001215099	0.06021405666687525	0.2695834880007252	-0.6442279986202457	-0.3593328830860956	0.07527320704189028	-0.2598390120527325	1.038729874521651	-0.5334939555042667	-0.5334939555010394	0.545150712270203	0.01636308682286968	-0.3151925548712002	0.05490699206973525	1.529704180012594e-07	4.522226300827745e-08	-1.740783117486593e-06	6.303503501441415e-07	1.585210313731985e-07	1.202913666961053e-07	-1.174258280122626e-06
1.54	-0.1184913180455751	0.05801686402769982	0.8744570271204689	0.6606522224382385	-0.2395871417742278	-0.1325158572652713	-0.2512665534497876	0.6122939041304157	0.6122939041303347	0.08018153383487876	0.1745321015057443	0.2327633428728058	0.03552524926431806	0.2878266301740331	0.1503494577375534	0.3469549810880233	-1.635199930330531	0.04600183429389314	-0.4118721959843542	0.7422080289247358	-1.895400943634491	-1.895400943634475	0.1840072805429818	-3.73711512852865e-06	-0.6357969769444157	-0.1033975403989954	-0.05429785106859192	-0.03012214888026958	0.008613865383341822	-0.3175285495914185	0.07773304554265234	-0.01748457575331941	0.1083320642261929	-35.9924717836725	-16.1253045248388	-5.762109579746188	-3.938370087468191	0.7788501787770351	-644.8970928234604	58.67991964542519	0.03609110711664111	0.2526057653876312	-0.6851589216925197	-0.213447099418706	0.09046294787610543	-0.2073249696444622	0.9639355479290155	-0.3620194025381008	-0.3620194025380988	0.5167231155530894	-0.03519573170585073	-0.2500233796638669	0.08867239531033837	1.599821403029871e-07	4.46209887690687e-08	-1.81441381996521e-06	6.467205118717981e-07	1.657216628742183e-07	1.215661121297338e-07	-1.212300349805564e-06
1.55	-0.1156117583842593	0.0595327171469161	0.8778916439843596	0.6442918148539887	-0.2391233500175349	-0.136645842123942	-0.2437974041006147	0.5933245742915028	0.5933245742913629	0.08204817787270774	0.1745321063895612	0.226393586672339	0.03449490219080312	0.2880422119066208	0.152790494175503	0.3399055444694536	-1.636641218803234	0.04674913347820839	-0.4140918325916261	0.7514924416506036	-1.898176259905834	-1.898176259905817	0.1893123043974513	2.640436292873193e-06	-0.6380552931320748	-0.1026591826616438	-0.04829806084760149	-0.03223298886679443	0.007969732036382271	-0.3144236843724495	0.08180391012020771	-0.01885985920895589	0.1028489561903348	-36.87844442043611	-14.73901748183588	-6.020397771903413	-4.007153615261544	0.3382099701612544	-642.0580062862973	58.61255458463585	0.007832718243172858	0.235287319435067	-0.7242393111996085	-0.07341007263093788	0.06567277563646357	-0.22413422227321	0.8912842459641223	-0.1920071287155448	-0.1920071287154365	0.535762643962143	0.0183566171083531	-0.1988536650933699	0.0680973885875861	1.665049434779108e-07	4.27456455388351e-08	-1.884970012720963e-06	6.568240220348078e-07	1.73376817490532e-07	1.199288317137693e-07	-1.245139371458244e-06
1.56	-0.1127313347032324	0.06107206757779917	0.8812538858262124	0.6279242063147261	-0.2386523233946056	-0.1407969935918915	-0.2362392926019734	0.5743361474120154	0.5743361474118202	0.08396754627378041	0.1745321354726147	0.2200042237246407	0.03347227467978994	0.2879994341157416	0.1550489200709087	0.3324799766804561	-1.636640121333329	0.04744880753961327	-0.4161055178390863	0.7600004588184095	-1.899220351748505	-1.899220351748488	0.1945521531946495	1.102729404100688e-06	-0.639718326390792	-0.101853627898692	-0.0422982706266223	-0.03434382885333113	0.007325598689501899	-0.3113188191534885	0.08587477469775825	-0.02023514266461042	0.09736584815447023	-37.71410858108528	-13.36247815380061	-6.276045048692564	-4.081324581628101	-0.1004478965422786	-639.3832619251515	58.61082222677642	-0.01558079757676156	0.2160836568788449	-0.7603851557780763	0.07503008910305911	0.08093792329402755	-0.1661346976821188	0.808656436316636	-0.01577451680390174	-0.01577451680390182	0.503688104098838	-0.03677878336786679	-0.1309667938754931	0.1021118004303646	1.732722310657636e-07	4.034939464782627e-08	-1.95967569750193e-06	6.65025679809221e-07	1.815265788771486e-07	1.173765614725405e-07	-1.278100106396792e-06
